<?xml version="1.0" encoding="utf-8"?>
<!-- Generator: Adobe Illustrator 18.1.1, SVG Export Plug-In . SVG Version: 6.00 Build 0)  -->
<svg version="1.1" id="Layer_1" xmlns="http://www.w3.org/2000/svg" xmlns:xlink="http://www.w3.org/1999/xlink" x="0px" y="0px"
	 width="754.2px" height="218.6px" viewBox="0 0 754.2 218.6" enable-background="new 0 0 754.2 218.6" xml:space="preserve">
<g>
	<g>
		<polygon fill="#005CB9" points="309.4,22.9 283.2,42.5 327.3,73.9 381.2,73.9 		"/>
		<g>
			<polygon fill="#00833E" points="277.3,0 173.5,73.9 175.1,73.9 284.6,5.2 			"/>
			<polygon fill="#00833E" points="285.4,5.7 190.6,73.9 192.2,73.9 292.6,10.9 			"/>
			<polygon fill="#00833E" points="293.4,11.4 207.8,73.9 209.3,73.9 300.7,16.6 			"/>
			<polygon fill="#00833E" points="301.4,17.1 224.9,73.9 226.5,73.9 308.7,22.3 			"/>
		</g>
	</g>
	<g>
		<polygon fill="#005CB9" points="245.2,195.8 271.5,176.1 227.4,144.7 173.5,144.7 		"/>
		<g>
			<polygon fill="#00833E" points="277.3,218.6 381.2,144.7 379.6,144.7 270,213.4 			"/>
			<polygon fill="#00833E" points="269.3,212.9 364,144.7 362.4,144.7 262,207.7 			"/>
			<polygon fill="#00833E" points="261.3,207.2 346.9,144.7 345.3,144.7 254,202 			"/>
			<polygon fill="#00833E" points="253.3,201.5 329.8,144.7 328.2,144.7 246,196.3 			"/>
		</g>
	</g>
	<g>
		<g>
			<g>
				<path fill="#005CB9" d="M166.6,135.4c-7.4,0-13.3-2.8-17.6-7.7c-4-4.7-6.2-10.9-6.2-18.4c0-6,1.3-11.1,3.7-15.3
					c4.2-7.3,11.7-11.8,20.4-11.8c5.3,0,10.4,1.4,13.9,4L177,91c-3.1-2.1-6.2-3-10-3c-5.6,0-9.9,2.6-12.6,7.4
					c-1.8,3.3-2.7,7.6-2.7,13.8c0,5.8,0.6,9.1,2.1,12.1c2.6,5.7,7.9,8.4,13.9,8.4c4.4,0,7.4-1.1,10.4-3.2l3.9,4.7
					C177.5,134,172.4,135.4,166.6,135.4z"/>
				<path fill="#005CB9" d="M216.7,134.7h-28.3V83.2h8.1v45.5H218L216.7,134.7z"/>
				<path fill="#005CB9" d="M241.1,135.5c-15.6,0-23.4-11.3-23.4-26.7c0-17,9.1-26.5,23-26.5c16.7,0,23.3,12.6,23.3,27
					C264,125,255.5,135.5,241.1,135.5z M240.7,87.9c-10,0-14,6.8-14,20c0,13.1,3.4,22.1,14.5,22.1c8.8,0,13.8-5.8,13.8-20.1
					C254.9,96,251.4,87.9,240.7,87.9z"/>
				<path fill="#005CB9" d="M300.8,134.7c-1.6-2.9-2.4-4.1-4.7-7.6c-4.4-6.6-5.8-8.7-9.8-12.9c-1.5-1.5-2.7-2.2-5.1-2.3v22.8h-8.1
					V83.2h16c6.7,0,10.7,1.4,13.4,3.7c2.5,2.2,5,5.6,5,10.6c0,7.9-5.5,14.3-14.8,14.1c3.4,2,7.4,8,9.6,11.1c2.5,3.5,6.8,10.3,8,11.9
					H300.8z M294,90.1c-1.6-0.6-3.9-1-6.9-1h-5.9V107h5.5c5,0,7.8-0.7,9.8-2.5c1.7-1.5,2.8-4,2.8-7C299.3,94,297.2,91.2,294,90.1z"
					/>
				<path fill="#005CB9" d="M337.9,135.5c-15.6,0-23.3-11.3-23.3-26.7c0-17,9-26.5,22.9-26.5c16.7,0,23.3,12.6,23.3,27
					C360.8,125,352.3,135.5,337.9,135.5z M337.5,87.9c-10,0-14,6.8-14,20c0,13.1,3.4,22.1,14.5,22.1c8.8,0,13.8-5.8,13.8-20.1
					C351.7,96,348.2,87.9,337.5,87.9z"/>
				<path fill="#005CB9" d="M396.3,134.7l-12.7-22.1l-12.2,22.1h-9.6l17.1-27.7l-15.1-23.8h9.6l10.2,17.5l9.7-17.5h9.4l-14.3,23.3
					l17.6,28.2H396.3z"/>
			</g>
		</g>
		<g>
			<g>
				<path fill="#005CB9" d="M37.2,89.1H22.5v45.5h-7.8V89.1H0v-6h38L37.2,89.1z"/>
				<path fill="#005CB9" d="M73.7,134.6v-24.4H52v24.4h-7.8V83.2H52v21.1h21.6V83.2h8v51.5H73.7z"/>
				<path fill="#005CB9" d="M91.5,134.6V83.2h30.8l-1.1,5.9H99.4v15.7h18.2v6.1H99.5v17.6h23.7v6.2H91.5z"/>
			</g>
		</g>
		<g>
			<g>
				<path fill="#005CB9" d="M448.9,135.4c-7.4,0-13.3-2.8-17.6-7.7c-4-4.7-6.2-10.9-6.2-18.4c0-6,1.3-11.1,3.7-15.3
					c4.2-7.3,11.7-11.8,20.4-11.8c5.3,0,10.4,1.4,13.9,4l-3.9,4.7c-3.1-2.1-6.2-3-10-3c-5.6,0-9.9,2.6-12.6,7.4
					c-1.8,3.3-2.7,7.6-2.7,13.8c0,5.8,0.6,9.1,2.1,12.1c2.6,5.7,7.9,8.4,13.9,8.4c4.4,0,7.4-1.1,10.4-3.2l3.9,4.7
					C459.8,134,454.6,135.4,448.9,135.4z"/>
				<path fill="#005CB9" d="M489.2,135.5c-15.6,0-23.3-11.3-23.3-26.7c0-17,9-26.5,22.9-26.5c16.7,0,23.3,12.6,23.3,27
					C512.1,125,503.6,135.5,489.2,135.5z M488.8,87.9c-10,0-14,6.8-14,20c0,13.1,3.4,22.1,14.5,22.1c8.8,0,13.8-5.8,13.8-20.1
					C503,95.9,499.5,87.9,488.8,87.9z"/>
				<path fill="#005CB9" d="M565.9,134.6l-3-35c-0.3-2.8-0.3-6.7-0.4-8.1h-0.2c-0.3,1.5-1.2,4.7-2.1,7.5L549,134.6h-6.8l-10.4-34.1
					c-1.2-4-2.2-7.8-2.5-9.2h-0.2c-0.1,1.8-0.3,6.5-0.6,9.2l-2.9,34.1H518l5.1-51.4h11.1l9.5,31.5c1.2,4.2,1.9,7.3,2.1,8.5h0.2
					c0.2-1.3,0.9-4.6,2-8.1l9.9-31.9h11.2l4.9,51.4H565.9z"/>
				<path fill="#005CB9" d="M613.1,111.3c-2.9,2-5.9,3.1-11.9,3.1h-9.4v20.2h-7.9V83.2H599c7.3,0,10.4,0.7,13.5,2.4
					c4.9,2.8,7.5,7.1,7.5,12.6C620,103.9,618.1,107.8,613.1,111.3z M608.4,91.6c-2-1.7-4.8-2.5-9.2-2.5h-7.4v19.6h8.9
					c3.9,0,6.3-0.8,8.1-2.9c1.6-1.8,2.4-3.9,2.4-6.8C611.2,95.6,610.3,93.2,608.4,91.6z"/>
				<path fill="#005CB9" d="M654.2,134.6l-5-14.6h-19.6l-4.9,14.6h-8.2L635,83.1h9.9l18.2,51.5H654.2z M639.9,90.3h-0.5
					c-0.8,2.9-6.8,21.4-7.8,23.8h15.9C646.5,111.7,640.6,93.2,639.9,90.3z"/>
				<path fill="#005CB9" d="M697.4,134.6l-14.9-27.3c-2.9-5.3-5.8-11.1-6.9-14.1l-0.5,0.1c0.4,4.4,0.6,9.6,0.7,14.3l0.3,27h-8V83.2
					h9.2l15.8,28.4c2.4,4.3,5.2,10.9,5.6,12.3l0.5-0.1c-0.2-1.5-0.8-9.6-0.8-15.3l-0.2-25.3h7.6v51.5H697.4z"/>
				<path fill="#005CB9" d="M736.2,114.2v20.5H728V114L710,83.2h9.7l9.4,17.5c1.2,2.2,2.2,4.3,3.1,6.7c1-2.1,2.1-4.2,3.3-6.6
					l9.5-17.6h9.2L736.2,114.2z"/>
			</g>
		</g>
	</g>
</g>
</svg>
