<?xml version="1.0" encoding="iso-8859-1"?>
<!-- Generator: Adobe Illustrator 18.0.0, SVG Export Plug-In . SVG Version: 6.00 Build 0)  -->
<!DOCTYPE svg PUBLIC "-//W3C//DTD SVG 1.1//EN" "http://www.w3.org/Graphics/SVG/1.1/DTD/svg11.dtd">
<svg xmlns="http://www.w3.org/2000/svg" xmlns:xlink="http://www.w3.org/1999/xlink" version="1.1" id="Capa_1" x="0px" y="0px" viewBox="0 0 60 60" style="enable-background:new 0 0 60 60;" xml:space="preserve" width="512px" height="512px">
<g>
	<path d="M47.179,41.429l-5.596,8.04l-3.949-3.241c-0.426-0.351-1.057-0.287-1.407,0.138c-0.351,0.427-0.289,1.058,0.139,1.407   l4.786,3.929c0.18,0.148,0.404,0.228,0.634,0.228c0.045,0,0.091-0.003,0.137-0.01c0.276-0.038,0.524-0.19,0.684-0.419l6.214-8.929   c0.315-0.453,0.204-1.076-0.25-1.392C48.117,40.861,47.495,40.975,47.179,41.429z" fill="#1a6687"/>
	<path d="M42,34c-7.168,0-13,5.832-13,13s5.832,13,13,13s13-5.832,13-13S49.168,34,42,34z M42,58c-6.065,0-11-4.935-11-11   s4.935-11,11-11s11,4.935,11,11S48.065,58,42,58z" fill="#1a6687"/>
	<circle cx="22" cy="53" r="2" fill="#1a6687"/>
	<path d="M34.595,0H9.405C6.976,0,5,1.977,5,4.405v51.189C5,58.023,6.976,60,9.405,60h23.303C28.655,57.094,26,52.356,26,47   c0-0.337,0.03-0.667,0.051-1H7V8h30v23h2V4.405C39,1.977,37.024,0,34.595,0z M22,49c2.206,0,4,1.794,4,4s-1.794,4-4,4s-4-1.794-4-4   S19.794,49,22,49z M22,5h-4c-0.552,0-1-0.447-1-1s0.448-1,1-1h4c0.552,0,1,0.447,1,1S22.552,5,22,5z M26,5h-1c-0.552,0-1-0.447-1-1   s0.448-1,1-1h1c0.552,0,1,0.447,1,1S26.552,5,26,5z" fill="#1a6687"/>
</g>
<g>
</g>
<g>
</g>
<g>
</g>
<g>
</g>
<g>
</g>
<g>
</g>
<g>
</g>
<g>
</g>
<g>
</g>
<g>
</g>
<g>
</g>
<g>
</g>
<g>
</g>
<g>
</g>
<g>
</g>
</svg>
